<svg xmlns="http://www.w3.org/2000/svg" version="1.1" xmlns:xlink="http://www.w3.org/1999/xlink" width="512" height="512" x="0" y="0" viewBox="0 0 80 80" style="enable-background:new 0 0 512 512" xml:space="preserve" class=""><g><path fill="#85cf62" d="M73.37 68.54H6.87a4.374 4.374 0 0 1-4.37-4.37V27.54a4.377 4.377 0 0 1 4.37-4.38h58.81a3.579 3.579 0 0 1 3.56 3.58v37.85a3.981 3.981 0 0 0 4.13 3.95Z" opacity="1" data-original="#e8c848" class=""></path><path fill="#000000" d="M73.37 69.04H6.87A4.876 4.876 0 0 1 2 64.17V27.54a4.881 4.881 0 0 1 4.87-4.88h58.81a4.088 4.088 0 0 1 4.06 4.08v37.85a3.466 3.466 0 0 0 3.63 3.45Zm-7.693-45.38H6.87A3.88 3.88 0 0 0 3 27.54v36.63a3.874 3.874 0 0 0 3.87 3.87h63.544a4.357 4.357 0 0 1-1.674-3.45V26.74a3.086 3.086 0 0 0-3.063-3.08Z" opacity="1" data-original="#2b385c" class=""></path><path fill="#619d44" d="M77.5 22.27v42.32a4.134 4.134 0 0 1-8.26 0V26.74a3.579 3.579 0 0 0-3.56-3.58H10.59v-7.19a4.513 4.513 0 0 1 4.52-4.51h15.74a2.655 2.655 0 0 1 2.65 2.65A3.892 3.892 0 0 0 37.39 18h35.83a4.27 4.27 0 0 1 4.28 4.27Z" opacity="1" data-original="#e4b415" class=""></path><path fill="#000000" d="M73.37 69.04a4.494 4.494 0 0 1-4.63-4.45V26.74a3.086 3.086 0 0 0-3.063-3.08H10.09v-7.69a5.021 5.021 0 0 1 5.02-5.01h15.74A3.153 3.153 0 0 1 34 14.11a3.392 3.392 0 0 0 3.39 3.39h35.83A4.781 4.781 0 0 1 78 22.27v42.32a4.494 4.494 0 0 1-4.63 4.45ZM11.09 22.66h54.59a4.088 4.088 0 0 1 4.06 4.08v37.85a3.635 3.635 0 0 0 7.26 0V22.27a3.779 3.779 0 0 0-3.78-3.77H37.39A4.392 4.392 0 0 1 33 14.11a2.152 2.152 0 0 0-2.15-2.15H15.11a4.019 4.019 0 0 0-4.02 4.01Z" opacity="1" data-original="#2b385c" class=""></path></g></svg>